<?xml version="1.0" standalone="no"?>
<!DOCTYPE svg PUBLIC "-//W3C//DTD SVG 20010904//EN"
 "http://www.w3.org/TR/2001/REC-SVG-20010904/DTD/svg10.dtd">
<svg version="1.0" xmlns="http://www.w3.org/2000/svg"
 width="9999.000000pt" height="9999.000000pt" viewBox="0 0 9999.000000 9999.000000"
 preserveAspectRatio="xMidYMid meet">

<g transform="translate(0.000000,9999.000000) scale(0.100000,-0.100000)"
fill="#000000" stroke="none">
<path d="M49300 99979 c-1078 -13 -2106 -59 -3210 -144 -5980 -461 -11813
-1992 -17230 -4523 -876 -409 -1890 -921 -2740 -1384 -2587 -1409 -5068 -3060
-7365 -4902 -1063 -853 -2069 -1728 -3069 -2669 -515 -485 -1528 -1497 -2028
-2027 -6310 -6684 -10639 -14902 -12547 -23820 -895 -4185 -1249 -8475 -1056
-12805 361 -8072 2658 -15884 6720 -22855 3502 -6008 8240 -11245 13878
-15338 3254 -2362 6766 -4317 10485 -5834 5301 -2162 10966 -3392 16732 -3633
794 -33 1151 -39 2130 -39 975 0 1346 7 2120 39 6321 265 12468 1704 18212
4264 1177 524 2453 1156 3588 1776 5543 3027 10464 7075 14513 11938 2808
3373 5156 7089 6990 11068 2297 4981 3752 10314 4307 15789 398 3930 336 7897
-186 11805 -1222 9154 -4971 17781 -10848 24960 -2001 2445 -4280 4744 -6701
6761 -6033 5026 -13115 8549 -20700 10297 -3940 909 -7871 1327 -11995 1276z
m-3210 -3803 c368 -46 644 -131 860 -264 188 -116 373 -325 464 -523 56 -124
128 -370 113 -385 -3 -4 -355 -31 -780 -61 l-774 -55 -79 79 c-117 117 -244
176 -449 208 -147 22 -289 27 -470 15 -601 -39 -961 -156 -1045 -343 -60 -131
9 -197 239 -229 95 -13 371 -15 1196 -9 565 4 742 -3 1035 -40 707 -89 1093
-319 1202 -716 18 -66 21 -105 21 -253 0 -157 -3 -185 -27 -275 -51 -195 -149
-358 -300 -503 -387 -369 -1093 -583 -2181 -662 -440 -31 -942 -31 -1220 0
-822 93 -1273 425 -1435 1055 -17 65 -29 119 -28 120 2 2 356 28 787 58 l785
56 14 -22 c27 -40 119 -122 176 -156 72 -43 197 -86 311 -106 336 -60 962 1
1267 123 179 72 280 171 282 279 2 73 -58 116 -204 143 -135 26 -369 31 -910
20 -575 -12 -955 -4 -1247 25 -712 72 -1120 262 -1278 597 -61 129 -70 181
-69 388 0 166 3 195 26 281 138 512 643 855 1519 1033 298 61 647 104 999 126
96 6 198 12 225 14 28 2 228 2 445 1 296 -2 429 -7 530 -19z m4667 -52 c461
-25 838 -46 839 -47 1 -1 415 -884 920 -1961 908 -1935 919 -1958 926 -1915
23 133 651 3674 653 3676 3 5 4590 -810 4598 -817 7 -6 -198 -1188 -208 -1198
-2 -2 -704 120 -1561 272 -856 152 -1559 275 -1561 273 -3 -4 -82 -441 -79
-443 0 -1 618 -111 1371 -244 754 -134 1373 -246 1377 -249 8 -7 -180 -1091
-191 -1103 -3 -4 -625 103 -1381 237 -755 135 -1375 243 -1376 242 -1 -1 -41
-227 -89 -502 -49 -275 -89 -502 -91 -503 -2 -4 -1421 244 -1456 254 -10 3
-18 14 -18 25 0 16 -8 19 -57 20 -157 1 -1614 86 -1621 95 -5 5 -67 156 -138
336 l-129 328 -30 0 c-16 0 -444 23 -950 50 -506 27 -921 50 -922 50 -1 0 -77
-143 -169 -317 -92 -175 -167 -319 -168 -320 -1 -1 -363 18 -806 43 -443 24
-822 44 -842 44 -21 0 -38 4 -38 9 0 7 1261 2085 2107 3474 l145 237 54 0 c30
0 431 -20 891 -46z m10848 -1883 c1166 -346 2119 -633 2119 -638 -2 -11 -276
-938 -278 -940 -1 -1 -645 188 -1431 422 -787 233 -1431 422 -1433 421 -8 -8
-133 -448 -129 -453 3 -3 644 -194 1424 -425 780 -231 1421 -423 1425 -427 5
-4 -235 -842 -246 -858 -1 -1 -645 189 -1431 422 -786 233 -1432 420 -1435
415 -12 -19 -132 -441 -127 -446 3 -3 644 -195 1424 -426 780 -231 1421 -423
1424 -426 5 -6 -266 -940 -275 -949 -2 -3 -4296 1267 -4304 1272 -2 2 959
3252 1069 3617 l20 66 32 -9 c18 -5 986 -292 2152 -638z m-24295 26 c0 -2 -95
-93 -212 -203 -1392 -1305 -2905 -2801 -3919 -3874 -2933 -3104 -5010 -5909
-6594 -8905 -253 -479 -761 -1522 -962 -1973 -350 -789 -503 -1355 -520 -1922
-19 -650 161 -1280 560 -1950 101 -170 246 -381 439 -638 325 -432 489 -693
683 -1087 272 -552 421 -1055 491 -1650 14 -111 18 -229 18 -455 1 -320 -7
-420 -50 -689 -202 -1262 -973 -2393 -2179 -3199 -270 -180 -522 -322 -852
-482 -812 -392 -1437 -864 -1854 -1400 -613 -787 -836 -1728 -714 -3016 36
-371 80 -679 210 -1438 243 -1424 267 -1726 221 -2801 -31 -724 -24 -1376 19
-1835 143 -1497 715 -2519 1816 -3243 411 -271 815 -460 1426 -668 506 -173
807 -297 1198 -494 567 -286 1049 -608 1480 -991 1519 -1347 2195 -3261 1894
-5369 -114 -804 -357 -1594 -734 -2395 -237 -501 -309 -673 -401 -948 -288
-862 -283 -1600 14 -2347 120 -303 275 -592 510 -950 445 -679 1624 -2157
2577 -3230 462 -520 1239 -1354 1251 -1342 3 2 -7 29 -20 59 -85 191 -179 503
-231 763 -202 1010 -24 2023 490 2795 162 243 361 470 559 635 86 73 105 95
204 245 598 904 943 1972 1082 3350 54 539 84 1149 96 1965 6 384 5 439 -10
515 -61 302 -272 559 -655 798 -93 57 -183 107 -533 292 -472 249 -826 598
-1038 1020 -58 117 -188 447 -324 828 -897 2506 -1366 4854 -1445 7242 l-9
265 -204 350 c-113 193 -288 492 -390 665 -560 952 -885 1546 -1148 2100 -507
1065 -796 1963 -865 2688 -19 202 -19 542 0 730 35 330 122 654 262 967 85
190 199 385 363 620 187 267 285 448 350 644 75 224 85 349 46 612 -40 268
-49 422 -43 716 5 294 18 418 72 688 114 572 363 1147 774 1785 210 325 319
476 1115 1529 98 130 254 342 347 471 231 322 352 464 638 751 314 314 468
448 1201 1045 800 651 1199 1046 1539 1521 39 56 92 120 117 143 59 54 173
107 344 160 74 23 186 58 248 77 l112 36 0 61 c0 138 46 356 107 511 80 206
203 387 387 571 228 227 391 339 861 589 588 313 1020 562 2135 1228 2140
1280 2896 1684 4062 2171 150 63 417 178 593 256 831 368 1231 490 1736 530
95 8 150 8 182 0 l47 -10 133 76 c424 246 906 455 1335 578 394 114 725 173
1172 211 403 34 641 91 1395 338 741 243 956 288 1550 327 88 6 179 13 202 16
l42 5 -50 82 c-125 207 -130 369 -14 482 63 62 147 107 333 179 204 79 287
123 353 183 67 62 91 114 90 194 l0 57 37 6 c91 15 253 18 350 7 259 -30 454
-118 626 -282 98 -93 156 -172 251 -344 144 -260 281 -441 486 -641 414 -402
947 -689 1629 -876 382 -104 493 -150 1129 -467 430 -214 611 -298 611 -283 0
14 63 357 66 361 2 2 72 -48 157 -111 l153 -115 464 -625 465 -625 67 -7 c117
-11 352 -55 510 -95 382 -98 724 -229 1393 -536 761 -349 967 -433 1406 -570
118 -37 438 -145 711 -241 836 -292 1159 -384 1619 -458 245 -40 371 -92 487
-201 85 -79 111 -120 294 -455 498 -913 694 -1358 821 -1867 79 -312 107 -538
107 -847 0 -392 -47 -666 -185 -1081 -80 -240 -98 -330 -99 -470 0 -171 48
-312 154 -455 70 -94 141 -158 340 -307 201 -149 316 -247 483 -412 310 -304
532 -578 1138 -1401 336 -457 569 -748 785 -980 174 -187 213 -270 221 -467 6
-148 -1 -193 -77 -483 -33 -124 -66 -272 -74 -330 -25 -177 -82 -286 -193
-372 -87 -66 -157 -90 -278 -95 -122 -6 -206 10 -346 66 -119 48 -156 51 -198
15 -37 -31 -54 -83 -76 -236 -9 -62 -28 -144 -42 -183 -75 -211 -98 -310 -113
-491 -17 -216 5 -426 95 -884 80 -409 95 -502 123 -788 l7 -74 62 95 c151 227
214 417 297 892 44 248 88 455 97 455 4 0 12 -12 17 -27 105 -281 126 -383
126 -613 -1 -262 -34 -416 -194 -904 -54 -166 -110 -350 -125 -410 -46 -188
-64 -375 -49 -490 l7 -46 66 0 c98 0 123 11 214 93 216 195 353 282 485 308
153 29 366 -2 862 -126 295 -74 357 -81 431 -48 81 36 120 106 178 317 22 80
49 163 60 184 33 64 50 142 61 277 15 184 32 237 94 301 60 62 116 82 246 91
207 13 349 -59 427 -218 18 -35 51 -127 74 -204 23 -77 83 -246 134 -375 535
-1354 836 -2712 937 -4230 16 -246 16 -955 0 -1130 -116 -1250 -536 -2407
-1275 -3515 -336 -503 -837 -1116 -994 -1215 -53 -34 -115 -40 -161 -16 -54
29 -125 116 -232 286 -83 133 -144 201 -215 238 -45 24 -60 27 -150 26 -126
-1 -166 -15 -427 -154 -1050 -560 -1704 -938 -2248 -1300 -96 -64 -211 -135
-255 -159 -282 -151 -514 -407 -631 -696 -77 -191 -102 -410 -69 -615 22 -144
32 -769 16 -1005 -69 -975 -359 -1751 -927 -2482 -83 -107 -153 -187 -312
-361 -233 -255 -318 -440 -513 -1122 -153 -533 -182 -617 -334 -944 -328 -714
-543 -1280 -1065 -2806 -585 -1712 -835 -2350 -1227 -3135 -609 -1217 -1271
-2076 -2218 -2878 -712 -603 -1316 -1335 -1889 -2290 -58 -98 -175 -301 -258
-450 -437 -785 -838 -1359 -1608 -2307 -266 -327 -291 -360 -380 -496 -206
-315 -314 -639 -327 -979 -8 -222 5 -321 72 -548 30 -103 55 -189 55 -191 0
-2 12 -7 28 -11 86 -21 218 -129 282 -231 72 -114 99 -196 180 -544 12 -52 39
-147 59 -210 l36 -115 -22 -120 c-12 -66 -31 -194 -42 -286 -46 -363 -53 -490
-58 -1144 -4 -624 -4 -631 -28 -730 -39 -159 -47 -260 -46 -585 1 -409 -17
-1203 -28 -1265 -5 -27 -8 -51 -6 -53 1 -2 58 47 126 109 740 668 1553 1206
2316 1529 1070 455 2168 589 3383 414 866 -125 1865 -437 2965 -927 638 -284
1463 -698 2295 -1150 162 -89 351 -189 420 -224 788 -399 1802 -468 3030 -207
654 139 1388 370 2260 709 502 196 925 374 2075 872 1002 435 1291 555 2070
856 2148 833 4276 1897 6305 3152 3677 2276 7195 5289 10534 9022 94 105 172
187 174 183 4 -11 -64 -265 -194 -725 -648 -2285 -1485 -4551 -2471 -6690
-422 -915 -952 -1968 -1425 -2835 -2490 -4556 -5752 -8682 -9607 -12154 -2661
-2396 -5593 -4473 -8716 -6174 -834 -454 -1858 -968 -2720 -1364 -5290 -2435
-10991 -3815 -16825 -4073 -758 -33 -1089 -39 -2035 -39 -944 0 -1282 6 -2025
39 -3317 148 -6577 652 -9755 1510 -9113 2460 -17264 7754 -23321 15145 -2468
3012 -4561 6354 -6197 9895 -3210 6951 -4637 14600 -4167 22345 434 7135 2486
14009 6033 20200 1583 2764 3477 5390 5611 7780 1032 1155 2197 2331 3337
3370 5114 4660 11199 8089 17769 10014 179 52 348 102 375 110 50 15 75 19 75
13z m28044 -1372 c551 -65 1295 -321 2071 -715 437 -222 720 -413 940 -635
204 -206 326 -414 381 -651 39 -172 37 -402 -6 -592 -27 -121 -31 -132 -42
-132 -6 0 -331 138 -723 307 l-713 306 -13 61 c-7 34 -31 97 -53 141 -51 103
-189 244 -326 334 -112 74 -345 190 -520 259 -535 212 -866 226 -969 41 l-25
-46 25 -49 c58 -112 197 -196 944 -569 314 -156 658 -334 765 -395 748 -428
1105 -796 1161 -1196 19 -137 -8 -286 -81 -440 -160 -343 -431 -546 -825 -620
-135 -26 -467 -26 -640 0 -447 65 -956 226 -1568 497 -1171 518 -1681 969
-1783 1580 -23 142 -15 360 21 514 14 61 27 115 29 122 3 8 249 -93 703 -288
383 -165 708 -305 722 -312 19 -9 27 -23 32 -52 41 -235 255 -446 644 -636
546 -265 993 -350 1171 -220 40 28 74 82 74 116 0 48 -80 132 -200 212 -120
79 -263 155 -780 411 -267 133 -559 282 -650 333 -737 410 -1104 744 -1230
1119 -34 100 -39 280 -12 388 62 243 236 494 434 625 134 88 310 153 493 181
122 19 392 19 549 1z m-26948 -1020 c43 -9 120 -30 170 -46 81 -26 101 -37
186 -108 330 -276 482 -592 439 -915 -49 -369 -339 -771 -649 -900 -109 -46
-186 -60 -327 -59 -162 1 -278 29 -442 108 -570 273 -783 776 -543 1280 86
181 256 391 395 490 120 85 269 146 406 165 87 12 268 5 365 -15z m33638
-2155 l763 -445 -4 -80 c-2 -44 -38 -1022 -79 -2174 -41 -1152 -75 -2096 -77
-2097 -3 -3 -1439 834 -1451 846 -6 6 43 597 59 692 4 25 -26 44 -820 508
-516 300 -830 478 -838 473 -6 -4 -139 -97 -295 -206 l-283 -198 -97 55 c-508
292 -1355 793 -1353 801 2 12 3692 2276 3703 2273 4 -2 352 -203 772 -448z
m3984 -2600 c1118 -811 2032 -1477 2032 -1480 0 -4 -703 -975 -715 -988 -2 -2
-326 231 -721 517 l-717 521 -64 -87 c-35 -49 -380 -523 -766 -1055 -446 -615
-707 -966 -715 -963 -35 13 -1202 871 -1200 882 2 7 305 428 673 935 369 507
711 979 761 1048 l91 126 -713 518 c-393 285 -714 523 -714 528 0 5 160 229
356 498 247 340 360 488 368 483 7 -5 927 -672 2044 -1483z m-39563 -636 c472
-50 890 -215 1230 -484 44 -35 127 -111 186 -170 302 -305 535 -730 679 -1242
l40 -142 -10 -150 c-56 -796 -248 -1369 -602 -1791 -353 -423 -828 -659 -1508
-752 -168 -22 -690 -26 -835 -5 -727 105 -1234 427 -1573 1001 -240 408 -364
961 -349 1556 6 227 20 349 63 543 164 737 650 1280 1359 1517 376 125 856
169 1320 119z m8395 -589 c125 -21 229 -47 375 -96 102 -33 132 -48 190 -95
422 -335 677 -683 778 -1064 29 -109 30 -125 31 -315 1 -225 -13 -314 -80
-506 -95 -274 -278 -574 -479 -787 -536 -569 -1305 -608 -2056 -103 -396 265
-631 590 -716 991 -27 127 -24 400 5 533 57 261 181 522 362 766 307 414 688
646 1145 695 77 8 351 -4 445 -19z m33850 -1256 c583 -99 1232 -507 1921
-1206 344 -349 566 -646 724 -968 311 -633 261 -1228 -150 -1773 -95 -127
-401 -460 -514 -559 -181 -161 -407 -297 -591 -357 -529 -173 -1112 -45 -1760
387 -541 361 -1128 938 -1450 1424 -108 163 -245 434 -294 584 -67 205 -80
289 -81 524 0 233 9 296 70 472 63 185 141 331 270 502 98 129 428 486 539
581 262 225 557 365 851 403 17 2 100 5 186 6 118 1 187 -4 279 -20z m3967
-3874 c535 -109 1142 -576 1839 -1415 368 -443 603 -782 763 -1100 93 -187
168 -393 196 -540 62 -328 5 -638 -167 -915 -64 -103 -184 -250 -203 -250 -10
0 -982 1139 -1009 1183 -4 6 1 37 10 69 11 37 17 90 16 148 -2 255 -172 556
-539 961 -327 358 -609 517 -771 435 -88 -45 -95 -118 -24 -260 66 -132 150
-252 489 -703 368 -488 451 -603 596 -823 335 -510 491 -887 504 -1215 7 -173
-10 -268 -72 -395 -65 -134 -160 -237 -317 -341 -205 -137 -429 -194 -680
-172 -571 48 -1238 544 -2028 1508 -454 554 -713 971 -834 1341 -62 191 -81
303 -81 484 0 218 37 373 133 559 70 136 230 350 257 344 9 -2 914 -1067 1002
-1179 10 -12 9 -25 -4 -65 -26 -80 -21 -230 11 -338 72 -242 293 -563 596
-866 298 -298 539 -421 687 -349 90 44 95 108 21 261 -67 138 -150 258 -519
748 -343 457 -484 653 -606 845 -243 383 -388 701 -443 975 -31 150 -25 359
13 475 38 114 90 198 182 290 168 170 392 283 621 314 90 13 262 6 361 -14z
m4259 -4644 c218 -338 397 -621 398 -627 1 -7 -240 -169 -534 -359 -294 -191
-538 -350 -543 -354 -5 -5 1173 -1844 1198 -1870 3 -2 246 153 542 344 295
191 543 348 551 349 12 1 822 -1235 822 -1253 -1 -10 -3200 -2076 -3215 -2076
-14 0 -827 1244 -820 1255 2 3 247 163 544 355 298 193 541 353 541 358 0 7
-1183 1841 -1199 1859 -3 4 -251 -152 -551 -346 -405 -262 -548 -350 -556
-342 -7 6 -191 288 -409 626 -277 429 -395 618 -389 628 15 22 3207 2083 3215
2075 4 -5 186 -285 405 -622z m3275 -5460 c186 -359 339 -659 339 -665 -1 -10
-3377 -1766 -3397 -1766 -15 0 -696 1321 -686 1331 19 19 3378 1758 3391 1756
7 -1 166 -296 353 -656z m1265 -2481 c184 -476 333 -874 331 -885 -2 -11 -281
-481 -620 -1045 -512 -853 -613 -1026 -599 -1032 9 -4 530 -163 1157 -353 627
-191 1141 -348 1143 -349 5 -5 672 -1737 672 -1744 -1 -8 -3548 -1377 -3569
-1377 -16 0 -555 1385 -543 1396 4 3 427 168 939 365 513 197 933 361 933 364
0 3 -543 151 -1206 330 -810 218 -1208 330 -1214 340 -14 26 -263 675 -263
685 0 6 302 482 672 1059 370 576 671 1049 669 1051 -2 2 -422 -158 -933 -356
-512 -197 -934 -359 -940 -359 -10 0 -540 1363 -540 1388 0 9 615 252 1780
702 979 379 1784 687 1788 686 5 -1 159 -391 343 -866z m-65184 -4756 c44 -8
122 -29 172 -46 75 -25 104 -41 166 -93 205 -172 353 -365 414 -541 40 -114
49 -183 43 -322 -7 -191 -58 -340 -179 -537 -337 -543 -874 -643 -1441 -268
-98 65 -262 231 -313 318 -96 164 -128 291 -121 475 6 149 33 254 103 393 157
314 397 531 674 611 131 37 317 41 482 10z m66561 -1934 c737 -143 1250 -794
1558 -1975 176 -676 230 -1300 153 -1765 -114 -683 -487 -1125 -1129 -1335
-138 -46 -570 -146 -720 -167 -49 -7 -173 -13 -275 -12 -149 0 -207 4 -297 22
-523 104 -919 441 -1223 1042 -245 486 -435 1170 -506 1830 -21 190 -24 600
-5 745 96 761 461 1232 1127 1454 198 67 638 162 849 185 96 10 363 -3 468
-24z m977 -5665 c809 -115 1315 -756 1525 -1930 61 -340 85 -600 92 -975 6
-333 -2 -495 -37 -720 -119 -780 -496 -1280 -1121 -1484 -138 -45 -278 -73
-478 -96 -571 -64 -835 -49 -1146 67 -324 120 -616 384 -815 735 -265 467
-427 1162 -459 1968 -30 768 90 1336 372 1750 73 106 273 304 380 374 184 122
390 205 625 252 317 63 831 92 1062 59z m-18790 -4174 c127 -22 324 -76 420
-115 161 -66 530 -428 692 -681 112 -173 193 -378 224 -564 20 -125 15 -383
-11 -501 -78 -356 -298 -753 -570 -1026 -200 -202 -402 -321 -664 -392 -89
-24 -111 -26 -316 -26 -192 -1 -233 2 -318 21 -149 34 -298 87 -442 158 -837
409 -1194 1121 -944 1880 68 207 230 487 398 687 283 338 644 538 1046 582 93
10 373 -3 485 -23z m18787 -1605 c975 -28 1775 -55 1779 -59 8 -7 -42 -1919
-52 -2012 l-6 -50 -1024 -799 c-564 -439 -1023 -800 -1021 -802 2 -2 451 -17
997 -34 546 -16 995 -32 998 -35 8 -7 -35 -1486 -43 -1493 -6 -6 -3824 104
-3829 110 -2 1 7 341 20 753 13 413 23 791 23 840 l1 91 1194 989 c1005 832
1191 990 1168 992 -15 1 -538 17 -1162 34 -624 18 -1135 32 -1136 33 -1 1 44
1501 45 1501 2 1 275 -7 2048 -59z m-6847 -2016 c1066 -124 1826 -805 2220
-1990 69 -205 117 -386 160 -598 l32 -153 -22 -167 c-141 -1096 -581 -1907
-1282 -2360 -344 -222 -721 -351 -1198 -408 -201 -25 -629 -25 -830 -1 -381
46 -680 132 -995 287 -646 317 -1090 861 -1301 1593 -116 404 -157 895 -113
1362 86 921 531 1636 1278 2054 385 216 875 351 1416 391 146 10 505 5 635
-10z m-10870 -5346 c46 -9 127 -29 179 -46 112 -36 177 -84 332 -245 183 -191
272 -364 300 -583 22 -171 -17 -355 -118 -552 -140 -276 -350 -482 -569 -559
-285 -100 -601 -42 -918 168 -344 229 -503 559 -441 914 37 213 155 434 331
618 246 259 536 350 904 285z m7186 -5669 c203 -27 495 -108 574 -159 63 -41
233 -189 335 -291 283 -284 441 -559 512 -886 25 -115 24 -387 -1 -514 -43
-219 -165 -504 -309 -722 -262 -396 -567 -629 -947 -724 -85 -21 -117 -24
-305 -24 -236 1 -307 12 -517 82 -235 78 -551 261 -745 432 -254 224 -420 498
-489 806 -8 39 -18 140 -21 225 -4 128 -2 176 15 275 64 375 288 776 599 1076
253 243 519 377 843 424 120 18 319 18 456 0z m-17204 -2901 c43 -8 120 -28
170 -45 108 -35 170 -82 325 -242 151 -157 239 -304 284 -472 32 -120 30 -296
-5 -430 -29 -113 -107 -278 -188 -400 -70 -107 -223 -259 -321 -319 -218 -135
-477 -159 -747 -70 -315 105 -587 331 -705 588 -57 123 -69 184 -69 346 1 128
4 156 27 233 47 152 109 273 213 413 178 238 402 376 669 414 77 11 245 3 347
-16z m6497 -509 c138 -20 249 -46 404 -97 120 -39 133 -46 220 -116 658 -533
907 -1104 750 -1724 -85 -341 -299 -708 -562 -968 -214 -212 -439 -337 -713
-397 -115 -25 -406 -25 -533 0 -216 42 -444 132 -654 256 -474 280 -759 655
-836 1095 -17 101 -20 316 -5 421 35 246 135 490 305 745 206 310 427 515 700
649 154 76 307 123 470 144 79 10 359 5 454 -8z"/>
<path d="M50359 94462 c-210 -394 -283 -538 -272 -540 16 -4 1006 -60 1010
-57 2 1 -446 1127 -450 1132 -1 1 -131 -240 -288 -535z"/>
<path d="M57160 75474 c-168 -13 -329 -58 -480 -134 -365 -183 -661 -524 -754
-870 -146 -543 -425 -1076 -721 -1376 -111 -112 -180 -166 -289 -225 -167 -90
-278 -109 -498 -84 -215 24 -413 17 -523 -19 -187 -61 -279 -179 -305 -392
-14 -114 0 -261 47 -497 19 -98 33 -180 31 -183 -3 -2 -121 37 -264 87 -861
300 -1116 320 -1339 104 -146 -141 -271 -387 -509 -1000 -133 -343 -147 -375
-170 -400 -19 -21 -39 -24 -206 -39 -378 -34 -540 -85 -540 -172 0 -45 93
-125 321 -276 218 -144 293 -212 305 -273 3 -19 3 -38 0 -44 -5 -7 -82 -8
-234 -4 -239 6 -823 -11 -930 -28 -103 -16 -171 -46 -228 -103 -65 -66 -88
-128 -88 -247 0 -77 3 -93 32 -152 53 -106 137 -165 297 -208 71 -19 120 -22
440 -29 235 -5 403 -14 485 -25 465 -61 887 -198 1393 -452 270 -134 394 -205
958 -544 273 -163 570 -339 660 -389 186 -104 533 -276 686 -340 57 -23 101
-46 98 -50 -3 -5 -51 -27 -108 -48 -492 -192 -889 -186 -1287 19 -158 81 -297
188 -493 376 -91 88 -207 192 -259 230 -619 466 -1617 773 -2858 880 -258 22
-1077 25 -1320 5 -966 -80 -1728 -305 -2152 -635 l-57 -44 142 -27 c78 -16
295 -66 482 -113 699 -173 838 -197 1175 -197 187 -1 270 4 405 21 325 43 419
48 825 48 416 0 523 -8 780 -56 353 -67 675 -186 948 -351 642 -387 1123
-1106 1472 -2198 97 -306 115 -351 164 -418 78 -105 175 -174 399 -282 380
-183 672 -219 1392 -170 342 23 570 25 715 5 58 -7 257 -41 442 -74 986 -177
1418 -240 1978 -288 284 -24 1027 -25 1405 -1 551 35 891 33 1202 -7 779 -99
1317 -453 1675 -1103 65 -116 99 -148 278 -255 164 -98 250 -178 269 -249 36
-128 -44 -300 -166 -359 -35 -17 -63 -22 -117 -22 -87 1 -152 19 -321 91 -192
81 -223 90 -420 123 -99 17 -349 68 -555 114 -436 98 -594 128 -780 149 -155
18 -436 21 -560 5 -696 -86 -1278 -524 -1488 -1119 -58 -165 -85 -370 -63
-485 47 -251 326 -466 731 -562 167 -39 359 -42 570 -9 436 68 755 90 1320 90
534 0 626 -4 1830 -88 624 -44 767 -50 1145 -51 l370 0 100 28 c314 87 581
301 700 560 106 232 87 473 -74 957 -173 517 -451 967 -850 1374 -330 336
-690 597 -1135 822 -208 106 -311 150 -708 304 -1673 651 -2615 899 -3688 971
-205 14 -808 5 -997 -14 -68 -7 -123 -8 -123 -4 0 11 252 404 416 648 643 957
1031 1291 1637 1406 145 28 607 25 822 -4 277 -38 559 -94 960 -190 434 -103
728 -155 1075 -189 210 -21 652 -24 817 -6 133 15 167 11 433 -53 411 -98 569
-98 662 1 101 108 76 345 -73 687 -21 50 -39 102 -39 116 0 27 45 101 97 158
15 17 91 85 168 151 474 405 675 720 675 1060 0 278 -144 621 -462 1095 -193
288 -366 453 -898 857 -480 364 -639 517 -740 711 -56 107 -70 177 -70 349 0
414 -102 696 -330 913 -143 137 -302 228 -695 398 -373 161 -758 366 -1404
747 -995 586 -1332 764 -1819 956 -264 105 -627 214 -847 256 -33 6 -72 16
-87 21 -32 13 -72 85 -123 227 -26 72 -42 102 -54 102 -9 0 -32 2 -51 4 -19 2
-55 2 -80 0z m-4380 -4820 c287 -39 586 -111 1235 -298 930 -267 1259 -328
1758 -328 125 -1 226 -2 224 -4 -7 -7 -313 -52 -477 -71 -235 -26 -820 -26
-1035 0 -573 70 -1066 229 -1535 495 -134 76 -350 214 -350 224 0 4 15 5 33 2
17 -2 84 -11 147 -20z m9019 -758 c476 -56 814 -197 1078 -450 52 -49 92 -91
89 -93 -6 -6 -1979 548 -1991 560 -16 15 669 1 824 -17z m-2074 -767 c1181
-56 2176 -259 3125 -634 247 -98 384 -161 388 -178 3 -14 -36 -259 -42 -265
-5 -4 -1121 312 -1441 410 -534 162 -626 188 -850 243 -645 158 -1219 231
-1905 242 -726 12 -1299 -44 -2135 -207 -406 -79 -586 -100 -860 -100 -346 0
-655 61 -926 182 -76 34 -86 48 -36 48 17 0 221 18 452 40 1285 122 1440 135
1900 169 889 66 1662 83 2330 50z m-610 -1043 c199 -29 305 -35 740 -46 912
-22 1122 -42 1480 -141 61 -16 115 -33 122 -37 8 -5 7 -46 -5 -149 l-15 -143
-26 0 c-55 1 -2462 268 -2468 274 -3 3 0 65 7 137 12 125 14 130 34 125 11 -3
71 -12 131 -20z"/>
<path d="M21680 74979 c-1190 -129 -1862 -914 -1980 -2314 -15 -180 -12 -653
5 -849 91 -1033 482 -1864 1100 -2337 424 -325 977 -488 1578 -465 393 15 688
82 982 225 627 304 1012 890 1189 1806 63 332 90 661 90 1120 0 321 -3 376
-23 505 -125 820 -443 1426 -954 1822 -326 251 -714 403 -1207 474 -135 19
-646 28 -780 13z"/>
<path d="M50163 65966 c-116 -22 -254 -64 -486 -148 -312 -113 -377 -127 -632
-139 -712 -33 -1234 -136 -2456 -485 -994 -283 -1319 -361 -1849 -444 -292
-45 -467 -98 -680 -205 -261 -132 -490 -305 -788 -599 -371 -364 -458 -603
-320 -876 45 -88 138 -182 202 -203 117 -40 236 -12 462 109 393 212 599 284
803 284 164 0 282 -51 391 -167 172 -184 246 -458 285 -1048 26 -397 50 -558
107 -729 50 -149 134 -298 231 -411 l35 -40 264 2 c401 2 691 23 1473 108 818
89 1012 104 1435 112 796 14 1379 -82 1988 -329 106 -43 138 -52 192 -52 114
-2 173 54 210 198 52 203 6 637 -101 961 -100 303 -263 562 -495 785 -156 150
-312 261 -512 364 -433 221 -1042 347 -1516 314 -271 -19 -615 -17 -707 5
-169 40 -287 124 -349 250 -127 259 -10 463 420 728 58 36 158 98 223 138 65
40 164 108 221 150 143 108 187 126 306 126 158 0 221 -38 497 -306 94 -92
203 -187 240 -212 65 -43 159 -87 187 -87 7 0 46 85 91 198 139 349 213 481
327 588 122 114 270 173 706 280 344 84 397 108 445 197 18 35 22 57 22 137
-1 103 -17 154 -71 226 -60 78 -219 167 -374 209 -87 23 -329 29 -427 11z"/>
<path d="M54497 61376 c-26 -80 -117 -260 -184 -361 -80 -121 -154 -212 -373
-464 -102 -117 -216 -255 -255 -306 -75 -100 -85 -119 -254 -465 -121 -249
-199 -364 -303 -451 -121 -101 -225 -134 -388 -126 -126 6 -210 32 -372 113
-118 59 -155 67 -206 40 -30 -15 -80 -71 -117 -131 -10 -16 -280 -388 -600
-825 -1138 -1556 -1119 -1528 -1157 -1653 -36 -120 -9 -223 79 -297 90 -74
281 -150 518 -206 148 -34 350 -43 449 -20 251 59 426 263 567 658 59 166 104
269 177 413 223 435 597 850 1014 1123 l117 77 1 65 c2 186 76 303 218 347 48
15 97 18 297 18 132 0 658 2 1170 3 l930 2 -69 40 c-194 114 -346 280 -456
500 -87 173 -132 343 -241 894 -76 390 -147 588 -282 789 -44 66 -147 178
-217 237 l-47 39 -16 -53z"/>
<path d="M54476 58674 c-130 -17 -391 -71 -701 -144 -316 -74 -303 -72 -420
-60 -54 6 -100 8 -102 6 -2 -2 13 -39 35 -82 60 -119 146 -344 186 -484 208
-735 81 -1403 -417 -2195 -170 -270 -326 -475 -896 -1180 -88 -109 -161 -203
-161 -207 0 -4 19 -20 41 -35 33 -21 57 -28 108 -31 65 -4 70 -2 166 49 178
94 193 101 234 106 54 7 94 -11 136 -60 71 -83 100 -214 70 -322 -23 -85 -68
-148 -233 -324 -253 -269 -291 -303 -377 -348 -126 -65 -171 -73 -430 -83
-196 -6 -240 -11 -300 -30 -173 -55 -298 -134 -574 -359 -102 -83 -235 -187
-297 -231 -125 -89 -172 -137 -215 -222 -57 -113 -72 -246 -45 -398 29 -158
85 -246 172 -269 54 -14 106 -4 265 53 132 47 200 57 464 71 385 21 583 59
760 147 117 58 196 118 321 244 96 97 123 118 195 152 98 47 162 62 262 62
136 0 223 -32 402 -145 393 -247 845 -334 1588 -303 403 17 1297 13 1442 -6
400 -53 589 -249 696 -720 39 -169 77 -242 178 -338 90 -86 188 -139 303 -162
94 -20 124 -20 211 -1 145 30 284 129 322 228 23 61 16 128 -23 211 -35 73
-85 142 -222 301 -561 656 -1033 1519 -1408 2575 -133 376 -256 773 -397 1285
-93 336 -120 410 -243 670 -178 377 -222 476 -261 589 -83 239 -101 387 -101
816 0 541 -33 828 -112 983 -26 52 -93 123 -143 152 -91 54 -268 68 -479 39z"/>
<path d="M41463 58028 c-83 -11 -309 -81 -402 -124 -257 -119 -295 -272 -133
-531 115 -183 152 -283 152 -408 0 -71 -4 -90 -31 -143 -53 -106 -166 -186
-379 -267 -231 -88 -320 -169 -320 -289 0 -85 178 -491 305 -696 332 -535 788
-829 1420 -916 149 -20 331 -16 390 10 128 55 152 156 95 396 -65 271 -63 363
7 441 39 43 119 78 189 82 l45 2 44 -170 c24 -93 57 -212 74 -264 399 -1210
1283 -1880 2624 -1990 70 -6 250 -11 400 -11 396 0 736 20 1647 95 294 24 659
54 810 65 151 11 343 29 425 41 830 113 1585 469 2268 1069 175 154 191 174
87 109 -121 -75 -383 -200 -532 -253 -342 -123 -699 -197 -1298 -271 -709 -86
-937 -121 -1210 -181 -160 -36 -395 -106 -520 -154 -217 -85 -208 -82 -340
-87 -97 -4 -152 -1 -245 15 -127 22 -357 85 -464 127 -156 61 -292 174 -325
271 -18 54 -21 161 -5 217 14 51 64 106 119 130 56 25 302 44 750 57 168 5
314 11 325 14 11 3 58 15 103 26 110 27 214 77 309 149 141 106 148 99 -99 99
-297 0 -515 25 -808 93 -291 67 -542 148 -1110 359 -443 165 -663 240 -855
291 -331 89 -416 114 -545 162 -375 138 -647 311 -916 581 -325 327 -551 704
-829 1384 -51 125 -60 141 -74 130 -9 -7 -64 -55 -123 -106 -74 -64 -105 -97
-102 -110 12 -52 86 -535 98 -642 22 -180 39 -490 34 -595 -7 -138 -51 -220
-143 -268 -49 -25 -212 -36 -268 -18 -52 18 -103 78 -116 140 -6 29 -11 128
-11 222 l0 170 -80 315 c-106 415 -119 495 -130 784 -8 248 -18 304 -62 371
-25 37 -93 75 -148 81 -19 3 -63 1 -97 -4z"/>
<path d="M66975 56312 c-104 -36 -181 -109 -232 -219 -25 -54 -28 -71 -35
-243 -16 -428 -93 -645 -441 -1245 -174 -299 -291 -535 -341 -685 l-35 -105
52 -52 c28 -29 56 -53 62 -53 6 0 177 197 380 438 204 240 407 476 451 523
174 184 225 302 374 859 67 252 143 424 237 538 l36 44 -49 49 c-139 142 -317
200 -459 151z"/>
<path d="M64162 55829 c-49 -15 -107 -78 -131 -144 -12 -32 -33 -126 -48 -209
-120 -703 -692 -1408 -1498 -1849 -432 -236 -935 -396 -1460 -464 -173 -22
-722 -26 -875 -5 -442 59 -781 161 -1109 333 -166 87 -261 152 -391 267 -123
110 -192 152 -250 152 -77 0 -176 -94 -221 -210 -56 -147 27 -315 217 -440
102 -67 865 -377 1377 -559 524 -187 1025 -322 1453 -392 612 -99 1616 -103
2299 -9 708 99 1288 318 1768 668 147 108 350 284 451 394 l77 83 -88 83 c-78
74 -91 83 -117 78 -56 -11 -213 -94 -336 -177 -69 -47 -196 -133 -282 -192
-182 -123 -280 -175 -421 -222 -208 -69 -396 -73 -639 -13 -49 12 -88 24 -88
28 0 4 30 12 67 19 36 7 109 26 162 43 360 115 579 312 698 627 55 146 88 329
123 686 36 362 67 523 136 697 50 126 52 204 8 299 -74 156 -267 287 -575 390
-131 44 -243 58 -307 38z"/>
<path d="M22574 51160 c-1437 -77 -2462 -722 -3049 -1921 -287 -587 -460
-1286 -525 -2131 -11 -143 -5 -275 26 -573 186 -1798 956 -3029 2254 -3603
500 -221 1072 -343 1744 -372 1091 -45 2037 238 2726 818 127 107 347 333 449
461 468 590 761 1368 856 2271 117 1122 -73 2226 -526 3055 -273 499 -653 930
-1104 1252 -583 415 -1323 666 -2160 732 -193 15 -519 20 -691 11z"/>
<path d="M49213 50495 c-135 -52 -257 -149 -517 -410 -610 -615 -1109 -1263
-1511 -1964 -175 -307 -217 -456 -166 -591 42 -111 129 -184 354 -295 160 -80
264 -118 370 -136 221 -37 397 87 493 349 15 40 24 75 21 78 -4 4 -64 20 -133
35 -70 16 -130 31 -132 34 -6 6 14 54 33 78 13 18 20 14 125 -58 102 -71 114
-77 148 -71 58 9 171 70 268 143 49 37 128 97 176 133 203 153 381 205 626
182 221 -21 326 -24 446 -12 118 11 258 45 319 76 101 52 177 139 213 244 27
81 24 236 -9 360 -54 206 -125 364 -339 753 -131 238 -211 411 -253 552 -60
200 -79 253 -117 327 -79 153 -166 218 -287 218 -45 -1 -86 -9 -128 -25z"/>
<path d="M51748 46860 c-127 -22 -248 -81 -392 -194 -75 -58 -408 -368 -515
-479 l-44 -45 44 -7 c112 -15 5053 -625 5069 -625 17 0 13 12 -27 103 -166
374 -333 638 -520 818 -104 100 -185 157 -299 211 -127 59 -217 79 -379 85
-156 5 -225 -3 -470 -61 -241 -56 -379 -69 -660 -63 -321 7 -479 31 -945 139
-517 120 -701 145 -862 118z"/>
<path d="M60725 23644 c-980 -48 -1808 -457 -2313 -1142 -256 -346 -417 -754
-489 -1237 -25 -170 -25 -675 0 -855 66 -469 201 -844 422 -1174 420 -626
1089 -1005 1965 -1112 199 -25 635 -25 845 0 606 70 1069 231 1505 521 264
175 505 411 694 678 246 347 424 816 495 1302 35 236 41 351 25 471 -82 624
-285 1134 -614 1543 -101 125 -309 327 -435 422 -416 312 -931 502 -1528 563
-148 15 -452 26 -572 20z"/>
<path d="M70963 88397 c-271 -188 -492 -344 -492 -347 -1 -4 774 -460 853
-502 l32 -16 53 566 c29 312 55 584 58 605 3 20 2 37 -3 36 -5 0 -230 -155
-501 -342z"/>
<path d="M78633 83210 c-133 -24 -248 -96 -390 -243 -170 -177 -239 -294 -262
-445 -24 -159 36 -344 176 -539 88 -124 244 -293 376 -410 329 -290 582 -423
806 -423 162 0 285 57 434 199 275 265 359 463 297 705 -44 175 -163 355 -378
577 -232 239 -435 397 -637 495 -162 78 -300 105 -422 84z"/>
<path d="M92400 59994 c-85 -16 -257 -56 -297 -70 -221 -74 -351 -208 -415
-431 -21 -69 -23 -100 -23 -273 1 -168 5 -217 29 -355 48 -273 147 -582 240
-749 141 -251 350 -379 595 -363 108 7 330 58 424 97 140 58 244 158 306 291
57 122 66 174 65 389 0 214 -18 347 -75 575 -127 505 -310 784 -568 866 -64
21 -224 33 -281 23z"/>
<path d="M93265 54318 c-202 -23 -323 -73 -431 -182 -162 -163 -223 -392 -211
-796 17 -541 149 -954 359 -1121 98 -78 250 -129 385 -129 103 0 324 31 404
56 320 101 466 410 445 944 -10 263 -62 574 -123 745 -98 271 -250 429 -464
480 -71 16 -234 18 -364 3z"/>
</g>
</svg>
